<svg width="471" height="308" viewBox="0 0 471 308" fill="none" xmlns="http://www.w3.org/2000/svg">
<path d="M337.141 96.2096H255.503V81.8674C255.503 79.9728 253.612 78.4369 251.279 78.4369H227.306V63.1596C227.306 61.9669 226.116 61 224.647 61H193.766C192.298 61 191.108 61.9669 191.108 63.1596V78.4317H162.924C160.591 78.4317 158.7 79.9676 158.7 81.8623V96.2044H80.8523C80.3806 96.2073 80 96.5187 80 96.9019V287.303C80 287.686 80.3806 287.997 80.8523 288H132.59C133.064 288 133.448 287.688 133.448 287.303V261.687C133.452 261.303 133.834 260.992 134.307 260.99H156.162C156.635 260.992 157.017 261.303 157.021 261.687V287.303C157.021 287.686 157.401 287.997 157.873 288H260.12C260.593 287.997 260.976 287.687 260.979 287.303V261.687C260.979 261.304 261.36 260.992 261.831 260.99H283.687C284.161 260.99 284.545 261.302 284.545 261.687V287.303C284.549 287.687 284.931 287.997 285.404 288H337.141C337.614 287.997 337.997 287.687 338 287.303V96.9071C337.997 96.5231 337.614 96.2124 337.141 96.2096Z" fill="#767676" fill-opacity="0.05"/>
<path d="M116.201 251.965C116.201 252.347 115.891 252.657 115.509 252.657H89.5961C89.4119 252.658 89.2348 252.586 89.104 252.456C88.9733 252.326 88.8998 252.149 88.8998 251.965V243.118C88.8998 242.733 89.2115 242.421 89.5961 242.421H115.509C115.892 242.424 116.201 242.735 116.201 243.118V251.965Z" fill="#F5F5F5"/>
<path d="M116.2 229.067C116.202 229.251 116.13 229.428 116 229.559C115.87 229.69 115.693 229.764 115.509 229.764H89.596C89.4109 229.765 89.233 229.692 89.1021 229.561C88.9712 229.43 88.8983 229.252 88.8997 229.067V220.21C88.8983 220.025 88.9712 219.847 89.1021 219.716C89.233 219.585 89.4109 219.512 89.596 219.513H115.509C115.693 219.513 115.87 219.587 116 219.717C116.13 219.848 116.202 220.026 116.2 220.21V229.067Z" fill="#F5F5F5"/>
<path d="M116.201 206.174C116.201 206.557 115.892 206.868 115.509 206.871H89.5961C89.4114 206.871 89.2343 206.798 89.1037 206.667C88.9731 206.536 88.8998 206.359 88.8998 206.174V197.312C88.8998 196.927 89.2115 196.615 89.5961 196.615H115.509C115.892 196.618 116.201 196.929 116.201 197.312V206.174Z" fill="#F5F5F5"/>
<path d="M116.2 183.276C116.202 183.46 116.13 183.638 116 183.769C115.87 183.9 115.693 183.973 115.509 183.973H89.596C89.4109 183.975 89.233 183.902 89.1021 183.771C88.9712 183.64 88.8983 183.461 88.8997 183.276V174.435C88.8983 174.25 88.9712 174.072 89.1021 173.941C89.233 173.809 89.4109 173.736 89.596 173.738H115.509C115.693 173.738 115.87 173.811 116 173.942C116.13 174.073 116.202 174.251 116.2 174.435V183.276Z" fill="#F5F5F5"/>
<path d="M116.201 160.383C116.201 160.766 115.892 161.078 115.509 161.081H89.5961C89.2115 161.081 88.8998 160.768 88.8998 160.383V151.522C88.8998 151.337 88.9733 151.16 89.104 151.031C89.2348 150.901 89.4119 150.828 89.5961 150.83H115.509C115.891 150.83 116.201 151.139 116.201 151.522V160.383Z" fill="#F5F5F5"/>
<path d="M116.201 137.491C116.201 137.873 115.891 138.183 115.509 138.183H89.5961C89.4119 138.184 89.2348 138.112 89.104 137.982C88.9733 137.852 88.8998 137.675 88.8998 137.491V128.629C88.8998 128.244 89.2115 127.932 89.5961 127.932H115.509C115.892 127.935 116.201 128.246 116.201 128.629V137.491Z" fill="#F5F5F5"/>
<path d="M116.2 114.593C116.202 114.777 116.13 114.955 116 115.085C115.87 115.216 115.693 115.29 115.509 115.29H89.596C89.4109 115.291 89.233 115.218 89.1021 115.087C88.9712 114.956 88.8983 114.778 88.8997 114.593V105.752C88.8983 105.566 88.9712 105.388 89.1021 105.257C89.233 105.126 89.4109 105.053 89.596 105.055H115.509C115.693 105.055 115.87 105.128 116 105.259C116.13 105.39 116.202 105.567 116.2 105.752V114.593Z" fill="#F5F5F5"/>
<path d="M177.636 251.959C177.636 252.144 177.563 252.321 177.432 252.45C177.301 252.58 177.124 252.653 176.94 252.651H151.027C150.644 252.651 150.333 252.342 150.33 251.959V243.118C150.333 242.734 150.643 242.424 151.027 242.421H176.94C177.324 242.421 177.636 242.733 177.636 243.118V251.959Z" fill="#F5F5F5"/>
<path d="M177.636 229.061C177.638 229.247 177.565 229.425 177.434 229.556C177.303 229.687 177.125 229.76 176.94 229.759H151.027C150.842 229.759 150.665 229.685 150.534 229.554C150.404 229.424 150.33 229.246 150.33 229.061V220.21C150.33 220.025 150.404 219.848 150.534 219.717C150.665 219.586 150.842 219.513 151.027 219.513H176.94C177.125 219.512 177.303 219.585 177.434 219.716C177.565 219.847 177.638 220.025 177.636 220.21V229.061Z" fill="#F5F5F5"/>
<path d="M177.636 206.169C177.636 206.554 177.324 206.866 176.94 206.866H151.027C150.643 206.863 150.333 206.553 150.33 206.169V197.312C150.333 196.928 150.643 196.618 151.027 196.615H176.94C177.324 196.615 177.636 196.927 177.636 197.312V206.169Z" fill="#F5F5F5"/>
<path d="M177.636 183.271C177.638 183.456 177.565 183.634 177.434 183.765C177.303 183.896 177.125 183.969 176.94 183.968H151.027C150.842 183.968 150.665 183.895 150.534 183.764C150.404 183.633 150.33 183.456 150.33 183.271V174.435C150.33 174.25 150.404 174.073 150.534 173.942C150.665 173.811 150.842 173.738 151.027 173.738H176.94C177.125 173.736 177.303 173.809 177.434 173.941C177.565 174.072 177.638 174.25 177.636 174.435V183.271Z" fill="#F5F5F5"/>
<path d="M177.636 160.378C177.636 160.763 177.324 161.075 176.94 161.075H151.027C150.643 161.073 150.333 160.762 150.33 160.378V151.522C150.333 151.139 150.644 150.83 151.027 150.83H176.94C177.124 150.828 177.301 150.901 177.432 151.031C177.563 151.16 177.636 151.337 177.636 151.522V160.378Z" fill="#F5F5F5"/>
<path d="M177.636 137.485C177.636 137.67 177.563 137.847 177.432 137.977C177.301 138.107 177.124 138.179 176.94 138.177H151.027C150.644 138.177 150.333 137.868 150.33 137.485V128.629C150.333 128.245 150.643 127.935 151.027 127.932H176.94C177.324 127.932 177.636 128.244 177.636 128.629V137.485Z" fill="#F5F5F5"/>
<path d="M177.636 114.588C177.638 114.773 177.565 114.951 177.434 115.082C177.303 115.213 177.125 115.286 176.94 115.285H151.027C150.842 115.285 150.665 115.211 150.534 115.081C150.404 114.95 150.33 114.772 150.33 114.588V105.752C150.33 105.567 150.404 105.389 150.534 105.259C150.665 105.128 150.842 105.055 151.027 105.055H176.94C177.125 105.053 177.303 105.126 177.434 105.257C177.565 105.388 177.638 105.566 177.636 105.752V114.588Z" fill="#F5F5F5"/>
<path d="M219.616 251.954C219.616 252.139 219.543 252.315 219.412 252.445C219.281 252.575 219.104 252.648 218.92 252.646H193.007C192.624 252.646 192.313 252.337 192.31 251.954V243.118C192.313 242.734 192.623 242.424 193.007 242.421H218.92C219.305 242.421 219.616 242.733 219.616 243.118V251.954Z" fill="#F5F5F5"/>
<path d="M219.616 229.056C219.618 229.242 219.545 229.42 219.414 229.551C219.283 229.682 219.105 229.755 218.92 229.753H193.007C192.822 229.753 192.645 229.68 192.514 229.549C192.384 229.419 192.31 229.241 192.31 229.056V220.21C192.31 220.025 192.384 219.848 192.514 219.717C192.645 219.586 192.822 219.513 193.007 219.513H218.92C219.105 219.512 219.283 219.585 219.414 219.716C219.545 219.847 219.618 220.025 219.616 220.21V229.056Z" fill="#F5F5F5"/>
<path d="M219.616 206.164C219.616 206.549 219.305 206.861 218.92 206.861H193.007C192.623 206.858 192.313 206.547 192.31 206.164V197.312C192.313 196.928 192.623 196.618 193.007 196.615H218.92C219.305 196.615 219.616 196.927 219.616 197.312V206.164Z" fill="#F5F5F5"/>
<path d="M219.616 183.266C219.618 183.451 219.545 183.629 219.414 183.76C219.283 183.891 219.105 183.964 218.92 183.963H193.007C192.822 183.963 192.645 183.889 192.514 183.759C192.384 183.628 192.31 183.451 192.31 183.266V174.435C192.31 174.25 192.384 174.073 192.514 173.942C192.645 173.811 192.822 173.738 193.007 173.738H218.92C219.105 173.736 219.283 173.809 219.414 173.941C219.545 174.072 219.618 174.25 219.616 174.435V183.266Z" fill="#F5F5F5"/>
<path d="M219.616 160.373C219.616 160.758 219.305 161.07 218.92 161.07H193.007C192.623 161.067 192.313 160.757 192.31 160.373V151.522C192.313 151.139 192.624 150.83 193.007 150.83H218.92C219.104 150.828 219.281 150.901 219.412 151.031C219.543 151.16 219.616 151.337 219.616 151.522V160.373Z" fill="#F5F5F5"/>
<path d="M219.616 137.48C219.616 137.665 219.543 137.842 219.412 137.971C219.281 138.101 219.104 138.174 218.92 138.172H193.007C192.624 138.172 192.313 137.863 192.31 137.48V128.629C192.313 128.245 192.623 127.935 193.007 127.932H218.92C219.305 127.932 219.616 128.244 219.616 128.629V137.48Z" fill="#F5F5F5"/>
<path d="M219.616 114.582C219.618 114.768 219.545 114.946 219.414 115.077C219.283 115.208 219.105 115.281 218.92 115.28H193.007C192.822 115.28 192.645 115.206 192.514 115.075C192.384 114.945 192.31 114.767 192.31 114.582V105.752C192.31 105.567 192.384 105.389 192.514 105.259C192.645 105.128 192.822 105.055 193.007 105.055H218.92C219.105 105.053 219.283 105.126 219.414 105.257C219.545 105.388 219.618 105.566 219.616 105.752V114.582Z" fill="#F5F5F5"/>
<path d="M281.052 251.949C281.049 252.332 280.738 252.641 280.356 252.641H254.442C254.258 252.642 254.081 252.57 253.95 252.44C253.82 252.31 253.746 252.133 253.746 251.949V243.118C253.746 242.733 254.058 242.421 254.442 242.421H280.361C280.744 242.424 281.054 242.734 281.057 243.118L281.052 251.949Z" fill="#F5F5F5"/>
<path d="M281.052 229.051C281.052 229.436 280.74 229.748 280.356 229.748H254.442C254.257 229.75 254.079 229.677 253.949 229.546C253.818 229.415 253.745 229.236 253.746 229.051V220.21C253.745 220.025 253.818 219.847 253.949 219.716C254.079 219.585 254.257 219.512 254.442 219.513H280.361C280.745 219.513 281.057 219.825 281.057 220.21L281.052 229.051Z" fill="#F5F5F5"/>
<path d="M281.052 206.158C281.049 206.542 280.739 206.853 280.356 206.856H254.442C254.058 206.856 253.746 206.543 253.746 206.158V197.312C253.746 196.927 254.058 196.615 254.442 196.615H280.361C280.744 196.618 281.054 196.928 281.057 197.312L281.052 206.158Z" fill="#F5F5F5"/>
<path d="M281.052 183.261C281.052 183.646 280.74 183.958 280.356 183.958H254.442C254.257 183.959 254.079 183.886 253.949 183.755C253.818 183.624 253.745 183.446 253.746 183.261V174.435C253.745 174.25 253.818 174.072 253.949 173.941C254.079 173.809 254.257 173.736 254.442 173.738H280.361C280.745 173.738 281.057 174.05 281.057 174.435L281.052 183.261Z" fill="#F5F5F5"/>
<path d="M281.052 160.368C281.049 160.752 280.739 161.062 280.356 161.065H254.442C254.058 161.065 253.746 160.753 253.746 160.368V151.522C253.746 151.337 253.82 151.16 253.95 151.031C254.081 150.901 254.258 150.828 254.442 150.83H280.361C280.743 150.83 281.054 151.139 281.057 151.522L281.052 160.368Z" fill="#F5F5F5"/>
<path d="M281.052 114.577C281.052 114.962 280.74 115.274 280.356 115.274H254.442C254.257 115.276 254.079 115.203 253.949 115.072C253.818 114.941 253.745 114.763 253.746 114.577V105.752C253.745 105.566 253.818 105.388 253.949 105.257C254.079 105.126 254.257 105.053 254.442 105.055H280.361C280.745 105.055 281.057 105.367 281.057 105.752L281.052 114.577Z" fill="#F5F5F5"/>
<path d="M471 281C471 287.741 451.877 293.907 420.261 298.64C414.512 299.497 408.35 300.308 401.818 301.071C396.17 301.729 390.253 302.347 384.065 302.926C378.069 303.478 371.843 303.991 365.388 304.465C344.999 305.968 322.463 307.049 298.519 307.589C292.71 307.718 286.821 307.82 280.853 307.894C274.641 307.965 268.356 308 262 308C146.572 308 53 295.915 53 281C53 266.085 146.572 254 262 254C311.692 254 357.331 256.243 393.199 259.978C394.519 260.119 395.826 260.256 397.12 260.389C397.127 260.398 397.136 260.402 397.145 260.401C442.326 265.357 471 272.744 471 281Z" fill="#2CCBBB"/>
<path d="M471 281C471 287.741 451.877 293.907 420.261 298.64C414.512 299.497 408.35 300.308 401.818 301.071C396.17 301.729 390.253 302.347 384.065 302.926C378.069 303.478 371.843 303.991 365.388 304.465C344.999 305.968 322.463 307.049 298.519 307.589C292.71 307.718 286.821 307.82 280.853 307.894C274.641 307.965 268.356 308 262 308C146.572 308 53 295.915 53 281C53 266.085 146.572 254 262 254C311.692 254 357.331 256.243 393.199 259.978C394.519 260.119 395.826 260.256 397.12 260.389C397.127 260.398 397.136 260.402 397.145 260.401C442.326 265.357 471 272.744 471 281Z" fill="url(#paint0_linear)" fill-opacity="0.5"/>
<path d="M260.5 301C372.89 301 464 290.479 464 277.5C464 264.521 372.89 254 260.5 254C148.11 254 57 264.521 57 277.5C57 290.479 148.11 301 260.5 301Z" fill="#63FFD4"/>
<path d="M260.5 301C372.89 301 464 290.479 464 277.5C464 264.521 372.89 254 260.5 254C148.11 254 57 264.521 57 277.5C57 290.479 148.11 301 260.5 301Z" fill="url(#paint1_linear)" fill-opacity="0.5"/>
<path fill-rule="evenodd" clip-rule="evenodd" d="M315.958 262C316.533 241.507 311.133 211 304.47 211C297.807 211 315.958 262 315.958 262Z" fill="#030D54"/>
<path fill-rule="evenodd" clip-rule="evenodd" d="M315.829 262C320.993 248.167 323.631 196 317.257 196C310.884 196 315.829 262 315.829 262Z" fill="#030D54"/>
<path fill-rule="evenodd" clip-rule="evenodd" d="M316 261C322.005 251.039 331.441 229.842 326.723 229.031C319.819 227.845 316 261 316 261Z" fill="#030D54"/>
<path fill-rule="evenodd" clip-rule="evenodd" d="M316 262C312.923 252.614 303.584 233.374 298.859 237.597C293.367 242.507 316 262 316 262Z" fill="#030D54"/>
<path d="M426.804 258.373C426.804 264.7 423.043 266.908 418.402 266.908C418.295 266.908 418.187 266.907 418.08 266.905C417.865 266.9 417.652 266.89 417.442 266.875C413.253 266.579 410 264.257 410 258.373C410 252.286 417.781 244.604 418.367 244.034L418.368 244.033C418.391 244.011 418.402 244 418.402 244C418.402 244 426.804 252.048 426.804 258.373Z" fill="#63FFD4"/>
<path d="M426.804 258.373C426.804 264.7 423.043 266.908 418.402 266.908C418.295 266.908 418.187 266.907 418.08 266.905C417.865 266.9 417.652 266.89 417.442 266.875C413.253 266.579 410 264.257 410 258.373C410 252.286 417.781 244.604 418.367 244.034L418.368 244.033C418.391 244.011 418.402 244 418.402 244C418.402 244 426.804 252.048 426.804 258.373Z" fill="url(#paint2_linear)" fill-opacity="0.5"/>
<path d="M418.096 265.94L421.169 261.648L418.088 266.412L418.08 266.905C417.865 266.9 417.652 266.89 417.442 266.875L417.773 260.547L417.77 260.497L417.776 260.489L417.807 259.89L414.719 255.115L417.817 259.442L417.824 259.569L418.074 254.787L415.43 249.852L418.107 253.948L418.367 244.034L418.368 244V244.033L418.325 251.851L420.957 248.751L418.314 252.524L418.244 256.806L420.703 252.697L418.234 257.436L418.196 259.816L421.763 254.097L418.182 260.646L418.096 265.94Z" fill="#030D54"/>
<path d="M277.804 247.373C277.804 253.7 274.043 255.908 269.402 255.908C269.295 255.908 269.187 255.907 269.08 255.905C268.865 255.9 268.652 255.89 268.442 255.875C264.253 255.579 261 253.257 261 247.373C261 241.286 268.781 233.604 269.367 233.034L269.368 233.033C269.391 233.011 269.402 233 269.402 233C269.402 233 277.804 241.048 277.804 247.373Z" fill="#63FFD4"/>
<path d="M277.804 247.373C277.804 253.7 274.043 255.908 269.402 255.908C269.295 255.908 269.187 255.907 269.08 255.905C268.865 255.9 268.652 255.89 268.442 255.875C264.253 255.579 261 253.257 261 247.373C261 241.286 268.781 233.604 269.367 233.034L269.368 233.033C269.391 233.011 269.402 233 269.402 233C269.402 233 277.804 241.048 277.804 247.373Z" fill="url(#paint3_linear)" fill-opacity="0.5"/>
<path d="M269.096 254.94L272.169 250.648L269.088 255.412L269.08 255.905C268.865 255.9 268.652 255.89 268.442 255.875L268.773 249.547L268.77 249.497L268.776 249.489L268.807 248.89L265.719 244.115L268.817 248.442L268.824 248.569L269.074 243.787L266.43 238.852L269.107 242.948L269.367 233.034L269.368 233V233.033L269.325 240.851L271.957 237.751L269.314 241.524L269.244 245.806L271.703 241.697L269.234 246.436L269.196 248.816L272.763 243.097L269.182 249.646L269.096 254.94Z" fill="#030D54"/>
<path d="M94.1108 52.8729C73.6886 34.0874 42.6188 33.0495 20.9906 50.4305C-0.637585 67.8114 -6.33778 98.3984 7.57567 122.415C21.4891 146.431 50.8435 156.674 76.6588 146.52C78.8886 154.486 86.2126 159.939 94.4765 159.786C102.74 159.634 109.858 153.914 111.793 145.871C113.727 137.828 109.99 129.492 102.701 125.592C118.183 102.558 114.533 71.6585 94.1108 52.8729Z" fill="#4629D3"/>
<path d="M94.1108 52.8729C73.6886 34.0874 42.6188 33.0495 20.9906 50.4305C-0.637585 67.8114 -6.33778 98.3984 7.57567 122.415C21.4891 146.431 50.8435 156.674 76.6588 146.52C78.8886 154.486 86.2126 159.939 94.4765 159.786C102.74 159.634 109.858 153.914 111.793 145.871C113.727 137.828 109.99 129.492 102.701 125.592C118.183 102.558 114.533 71.6585 94.1108 52.8729Z" fill="url(#paint4_linear)" fill-opacity="0.5"/>
<rect x="22.6891" y="91.7931" width="66.7666" height="5.27571" rx="2.63786" fill="white"/>
<rect x="22.6891" y="100.586" width="66.7666" height="5.27571" rx="2.63786" fill="white"/>
<rect x="22.6891" y="83.0002" width="66.7666" height="5.27571" rx="2.63786" fill="white"/>
<path d="M301.188 14.8729C321.61 -3.91264 352.68 -4.95049 374.308 12.4305C395.936 29.8114 401.636 60.3984 387.723 84.4146C373.809 108.431 344.455 118.674 318.64 108.52C316.41 116.486 309.086 121.939 300.822 121.786C292.558 121.634 285.44 115.914 283.506 107.871C281.571 99.8278 285.309 91.4923 292.598 87.5922C277.115 64.5579 280.765 33.6585 301.188 14.8729Z" fill="#4629D3"/>
<path d="M301.188 14.8729C321.61 -3.91264 352.68 -4.95049 374.308 12.4305C395.936 29.8114 401.636 60.3984 387.723 84.4146C373.809 108.431 344.455 118.674 318.64 108.52C316.41 116.486 309.086 121.939 300.822 121.786C292.558 121.634 285.44 115.914 283.506 107.871C281.571 99.8278 285.309 91.4923 292.598 87.5922C277.115 64.5579 280.765 33.6585 301.188 14.8729Z" fill="url(#paint5_linear)" fill-opacity="0.5"/>
<rect x="372.609" y="50.276" width="66.7666" height="5.27571" rx="2.63786" transform="rotate(-180 372.609 50.276)" fill="white"/>
<rect x="372.609" y="59.0688" width="66.7666" height="5.27571" rx="2.63786" transform="rotate(-180 372.609 59.0688)" fill="white"/>
<rect x="372.609" y="67.8617" width="66.7666" height="5.27571" rx="2.63786" transform="rotate(-180 372.609 67.8617)" fill="white"/>
<path d="M130.223 207.144C142.835 195.539 162.023 194.898 175.38 205.635C188.737 216.373 192.257 235.269 183.665 250.105C175.072 264.942 156.944 271.27 141.001 264.997C139.624 269.918 135.1 273.287 129.997 273.193C124.893 273.098 120.498 269.564 119.303 264.596C118.108 259.627 120.416 254.478 124.918 252.068C115.356 237.838 117.61 218.749 130.223 207.144Z" fill="#4629D3"/>
<path d="M130.223 207.144C142.835 195.539 162.023 194.898 175.38 205.635C188.737 216.373 192.257 235.269 183.665 250.105C175.072 264.942 156.944 271.27 141.001 264.997C139.624 269.918 135.1 273.287 129.997 273.193C124.893 273.098 120.498 269.564 119.303 264.596C118.108 259.627 120.416 254.478 124.918 252.068C115.356 237.838 117.61 218.749 130.223 207.144Z" fill="url(#paint6_linear)" fill-opacity="0.33"/>
<path d="M140.065 235.92C142.28 235.92 144.076 234.122 144.076 231.904C144.076 229.686 142.28 227.888 140.065 227.888C137.85 227.888 136.054 229.686 136.054 231.904C136.054 234.122 137.85 235.92 140.065 235.92Z" fill="white"/>
<path d="M153.751 235.92C155.966 235.92 157.762 234.122 157.762 231.904C157.762 229.686 155.966 227.888 153.751 227.888C151.535 227.888 149.739 229.686 149.739 231.904C149.739 234.122 151.535 235.92 153.751 235.92Z" fill="white"/>
<path d="M167.437 235.92C169.652 235.92 171.448 234.122 171.448 231.904C171.448 229.686 169.652 227.888 167.437 227.888C165.221 227.888 163.425 229.686 163.425 231.904C163.425 234.122 165.221 235.92 167.437 235.92Z" fill="white"/>
<path d="M157.768 107.31C157.768 107.31 175.666 107.798 178.621 108.874C181.577 109.951 182.899 117.651 182.899 117.651L169.003 122.024L158.609 121.434L150.786 121.988L155.154 110.535L157.768 107.31Z" fill="#2F2E41"/>
<path d="M158.54 101.43C158.54 101.43 159.717 105.984 157.104 109.208C154.49 112.432 168.339 123.922 168.339 123.922L175.645 122.664C175.645 122.664 174.034 108.673 176.197 105.13C178.36 101.587 158.54 101.43 158.54 101.43Z" fill="#9F616A"/>
<path opacity="0.1" d="M158.54 101.43C158.54 101.43 159.717 105.984 157.104 109.208C154.49 112.432 168.339 123.922 168.339 123.922L175.645 122.664C175.645 122.664 174.034 108.673 176.197 105.13C178.36 101.587 158.54 101.43 158.54 101.43Z" fill="black"/>
<path d="M207.127 234.566L191.007 255.969L202.008 262.399L217.148 237.598L207.127 234.566Z" fill="#9F616A"/>
<path d="M195.82 256.33C195.82 256.33 189.884 249.424 190.148 250.964C190.413 252.504 185.925 265.563 190.1 266.827C194.276 268.09 230.083 271.44 230.576 267.392C231.069 263.344 219.894 260.51 219.894 260.51C219.894 260.51 213.255 254.122 211.783 254.772C210.311 255.422 195.82 256.33 195.82 256.33Z" fill="#2F2E41"/>
<path d="M203.51 255.007L216.385 276.968L226.106 271.332L213.123 253.352L203.51 255.007Z" fill="#9F616A"/>
<path d="M223.835 202.758L220.014 208.171C220.014 208.171 201.798 233.502 203.732 235.547C205.667 237.592 213.724 245.322 217.821 243.824C221.918 242.326 236.476 216.436 236.476 216.436L232.679 201.236L223.835 202.758Z" fill="#2F2E41"/>
<path d="M145.365 197.633C145.365 197.633 149.444 205.254 159.784 207.835C170.124 210.415 180.926 215.691 181.31 215.624C181.695 215.558 182.782 214.975 183.047 216.515C183.311 218.055 186.147 220.737 186.147 220.737C186.147 220.737 197.568 259.596 201.93 259.638C206.292 259.68 215.256 256.552 215.442 255.331C215.628 254.11 202.086 214.427 201.954 213.657L200.368 204.418C200.368 204.418 218.278 207.281 219.948 207.786C221.618 208.292 236.476 216.436 236.476 216.436C236.476 216.436 251.622 205.507 237.455 194.469C223.288 183.431 198.938 175.334 198.938 175.334L190.202 172.874L182.589 172.419L181.468 168.115L163.437 169.156L144.62 177.151L145.365 197.633Z" fill="#28316D"/>
<path d="M169.162 110.494C176.919 110.494 183.207 104.198 183.207 96.4317C183.207 88.6652 176.919 82.3692 169.162 82.3692C161.405 82.3692 155.117 88.6652 155.117 96.4317C155.117 104.198 161.405 110.494 169.162 110.494Z" fill="#9F616A"/>
<path d="M156.455 107.734L158.144 107.444C158.144 107.444 161.195 119.206 170.634 121.148C170.634 121.148 175.291 115.562 175.092 114.62C174.894 113.677 178.781 108.649 180.848 111.464C182.914 114.279 180.343 163.869 182.079 164.759C183.816 165.649 187.541 166.594 184.543 169.884C181.545 173.175 169.637 177.602 166.999 176.074C164.362 174.546 158.973 161.601 156.641 157.246C154.31 152.891 150.579 138.076 150.579 138.076C150.579 138.076 145.815 121.852 148.747 118.177C151.679 114.502 156.455 107.734 156.455 107.734Z" fill="#4629D3"/>
<path d="M156.455 107.734L158.144 107.444C158.144 107.444 161.195 119.206 170.634 121.148C170.634 121.148 175.291 115.562 175.092 114.62C174.894 113.677 178.781 108.649 180.848 111.464C182.914 114.279 180.343 163.869 182.079 164.759C183.816 165.649 187.541 166.594 184.543 169.884C181.545 173.175 169.637 177.602 166.999 176.074C164.362 174.546 158.973 161.601 156.641 157.246C154.31 152.891 150.579 138.076 150.579 138.076C150.579 138.076 145.815 121.852 148.747 118.177C151.679 114.502 156.455 107.734 156.455 107.734Z" fill="url(#paint7_linear)" fill-opacity="0.33"/>
<path d="M169.897 168.785C169.583 172.239 169.046 175.67 168.288 179.054C167.6 181.808 166.798 183.471 165.882 183.4C163.547 183.225 162.485 186.655 161.938 190.609C161.353 194.803 161.353 199.588 161.032 201.279C160.608 203.514 157.89 205.219 152.459 204.718C149.225 204.35 146.051 203.571 143.014 202.399C135.682 199.73 135.899 178.086 137.126 162.025C137.876 152.181 139.004 144.429 139.004 144.429C139.004 144.429 136.777 137.778 136.064 133.22C135.923 132.388 135.851 131.546 135.852 130.702C135.961 126.72 143.222 115.959 147.609 109.256C152.002 102.553 157.994 107.471 157.994 107.471L155.908 113.772C155.908 113.772 159.14 118.765 159.164 123.517C159.187 128.269 166.901 131.699 169.671 133.999C171.412 135.445 171.369 154.741 169.897 168.785Z" fill="#28316D"/>
<path d="M175.996 109.722C175.996 109.722 176.502 110.321 178.82 110.029C181.599 109.679 185.421 110.642 186.309 113.298C187.937 118.171 192.527 137.991 192.527 137.991C192.527 137.991 194.438 160.651 195.297 165.655C196.156 170.66 195.729 175.093 196.577 177.722C197.424 180.351 188.213 172.82 184.819 173.8C181.424 174.781 179.243 162.076 179.67 157.643C180.097 153.21 180.457 148.392 179.279 143.838C178.102 139.285 180.19 127.233 180.112 124.472C180.033 121.711 172.627 114.752 175.996 109.722Z" fill="#28316D"/>
<path d="M185.934 180.148C185.934 180.148 200.805 188.271 202.229 199.833C203.652 211.394 182.338 188.638 182.338 188.638L185.934 180.148Z" fill="#9F616A"/>
<path d="M194.423 171.949C194.423 171.949 198.98 194.946 206.079 193.725C213.178 192.503 202.114 170.626 202.114 170.626L194.423 171.949Z" fill="#9F616A"/>
<path d="M218.734 272.204C218.734 272.204 215.1 276.397 214.198 275.759C213.297 275.122 211.224 283.802 213.093 285.462C214.961 287.122 222.159 289.847 222.237 292.608C222.315 295.369 241.619 294.822 242.31 291.928C243.001 289.035 239.889 282.436 237.702 281.227C235.515 280.018 227.429 268.89 227.429 268.89C227.429 268.89 221.095 269.816 218.734 272.204Z" fill="#2F2E41"/>
<path opacity="0.1" d="M183.565 194.213C180.116 191.775 170.487 191.171 161.938 190.609C158.187 190.368 154.644 190.131 151.922 189.749C149.298 189.385 146.939 186.985 144.845 183.41C141.669 177.991 139.103 169.867 137.126 162.025C137.876 152.181 139.004 144.429 139.004 144.429C139.004 144.429 136.777 137.778 136.064 133.22C136.567 132.52 137.213 131.937 137.961 131.51C147.029 127.613 155.687 165.965 156.786 171.983C156.805 172.082 156.819 172.176 156.833 172.257C157.366 175.355 163.127 178.006 168.288 179.054C171.468 179.701 174.427 179.744 175.79 178.903C179.371 176.702 190.383 185.512 191.218 185.762C192.053 186.017 188.519 197.722 183.565 194.213Z" fill="#030D54"/>
<path d="M137.963 129.149C137.963 129.149 131.372 132.265 134.268 146.828C137.164 161.391 142.997 186.15 151.919 187.389C160.841 188.628 178.607 188.345 183.563 191.852C188.52 195.359 192.053 183.653 191.218 183.401C190.382 183.148 179.37 174.342 175.789 176.543C172.208 178.745 157.693 174.901 156.834 169.896C155.975 164.892 147.179 125.185 137.963 129.149Z" fill="#28316D"/>
<path d="M185.456 122.165L192.699 138.993C192.699 138.993 193.428 138.629 194.275 141.257C195.123 143.886 195.519 146.196 197.003 147.922C198.487 149.649 205.09 174.275 205.288 175.43C205.486 176.585 196.169 180.567 194.087 177.358C192.005 174.149 185.456 122.165 185.456 122.165Z" fill="#28316D"/>
<path d="M161.171 96.2359C161.709 96.092 161.788 95.3765 161.806 94.819C161.903 91.8334 163.699 88.7698 166.553 87.9006C167.648 87.5999 168.795 87.5367 169.917 87.7153C171.518 87.9288 173.064 88.4452 174.472 89.2369C175.216 89.6554 175.945 90.1594 176.788 90.2872C177.345 90.3716 179.757 91.0736 180.311 91.1724C181.53 91.3896 182.664 92.4818 183.833 92.0753C184.953 91.6865 185.201 90.2355 185.228 89.0496C185.289 86.3479 183.241 82.6086 181.436 80.5987C180.067 79.0734 178.005 78.3694 175.99 78.0033C173.636 77.6245 171.25 77.4792 168.867 77.5694C165.642 77.627 162.327 77.8763 159.419 79.2735C156.511 80.6708 154.068 83.4517 153.928 86.6784C153.899 87.3506 153.968 88.0255 153.912 88.6959C153.774 90.3314 152.907 91.8086 152.5 93.3985C151.912 95.7575 152.348 98.2556 153.7 100.275C154.78 101.865 156.476 103.304 156.414 105.226L158.754 102.798C159.474 102.247 159.713 101.268 159.326 100.447L158.497 97.2118C158.284 96.6343 158.259 96.0041 158.426 95.4114C159.314 93.2143 160.274 96.4758 161.171 96.2359Z" fill="#2F2E41"/>
<path d="M368.293 258.028C368.196 257.87 365.909 254.046 365.116 246.107C364.389 238.823 364.856 226.546 371.216 209.419C383.264 176.975 368.439 150.797 368.288 150.536L369.019 150.111C369.058 150.177 372.883 156.852 375.143 167.48C378.129 181.57 377.041 196.221 372.008 209.714C359.981 242.103 368.923 257.436 369.014 257.587L368.293 258.028Z" fill="#030D54"/>
<path d="M363.582 148.631C366.616 148.631 369.076 146.168 369.076 143.13C369.076 140.092 366.616 137.629 363.582 137.629C360.547 137.629 358.087 140.092 358.087 143.13C358.087 146.168 360.547 148.631 363.582 148.631Z" fill="#FF7264"/>
<path d="M363.582 148.631C366.616 148.631 369.076 146.168 369.076 143.13C369.076 140.092 366.616 137.629 363.582 137.629C360.547 137.629 358.087 140.092 358.087 143.13C358.087 146.168 360.547 148.631 363.582 148.631Z" fill="url(#paint8_linear)" fill-opacity="0.5"/>
<path d="M380.911 168.943C383.945 168.943 386.405 166.48 386.405 163.442C386.405 160.404 383.945 157.941 380.911 157.941C377.876 157.941 375.416 160.404 375.416 163.442C375.416 166.48 377.876 168.943 380.911 168.943Z" fill="#28316D"/>
<path d="M369.076 182.484C372.111 182.484 374.571 180.021 374.571 176.983C374.571 173.945 372.111 171.482 369.076 171.482C366.042 171.482 363.582 173.945 363.582 176.983C363.582 180.021 366.042 182.484 369.076 182.484Z" fill="#FF7264"/>
<path d="M369.076 182.484C372.111 182.484 374.571 180.021 374.571 176.983C374.571 173.945 372.111 171.482 369.076 171.482C366.042 171.482 363.582 173.945 363.582 176.983C363.582 180.021 366.042 182.484 369.076 182.484Z" fill="url(#paint9_linear)" fill-opacity="0.5"/>
<path d="M383.446 193.91C386.481 193.91 388.941 191.447 388.941 188.409C388.941 185.37 386.481 182.907 383.446 182.907C380.412 182.907 377.952 185.37 377.952 188.409C377.952 191.447 380.412 193.91 383.446 193.91Z" fill="#FF7264"/>
<path d="M383.446 193.91C386.481 193.91 388.941 191.447 388.941 188.409C388.941 185.37 386.481 182.907 383.446 182.907C380.412 182.907 377.952 185.37 377.952 188.409C377.952 191.447 380.412 193.91 383.446 193.91Z" fill="url(#paint10_linear)" fill-opacity="0.5"/>
<path d="M364.85 211.683C367.884 211.683 370.344 209.22 370.344 206.181C370.344 203.143 367.884 200.68 364.85 200.68C361.815 200.68 359.355 203.143 359.355 206.181C359.355 209.22 361.815 211.683 364.85 211.683Z" fill="#28316D"/>
<path d="M371.612 258.231C371.612 258.231 366.118 244.69 382.601 234.534L371.612 258.231Z" fill="#28316D"/>
<path d="M364.855 257.985C364.855 257.985 362.354 243.585 343 243.709L364.855 257.985Z" fill="#28316D"/>
<path d="M243.574 73.0989C243.63 73.0211 243.738 73.003 243.816 73.0586C243.893 73.114 243.911 73.2219 243.856 73.2996L242.397 75.3469C242.341 75.4247 242.233 75.4427 242.155 75.3872C242.078 75.3317 242.06 75.2239 242.115 75.1462L243.574 73.0989Z" fill="#3A3768"/>
<path d="M235.543 64.5124C235.574 64.4683 235.636 64.458 235.68 64.4895C235.724 64.521 235.734 64.5821 235.703 64.6262L235.271 65.2316C235.24 65.2757 235.178 65.286 235.134 65.2545C235.09 65.223 235.08 65.1618 235.112 65.1178L235.543 64.5124Z" fill="#3A3768"/>
<path d="M234.524 65.9262C234.559 65.8774 234.627 65.8661 234.676 65.9009C234.724 65.9357 234.736 66.0033 234.701 66.052L233.877 67.2081C233.842 67.2568 233.774 67.2682 233.726 67.2333C233.677 67.1986 233.666 67.131 233.7 67.0823L234.524 65.9262Z" fill="#3A3768"/>
<path d="M233.253 67.7255C233.286 67.679 233.351 67.6682 233.397 67.7014C233.444 67.7345 233.455 67.7989 233.421 67.8452L232.583 69.0224C232.549 69.0688 232.485 69.0796 232.439 69.0464C232.392 69.0133 232.381 68.9489 232.414 68.9026L233.253 67.7255Z" fill="#3A3768"/>
<path d="M240.797 65.4001C240.85 65.3258 240.953 65.3085 241.027 65.3616L242.077 66.1114C242.151 66.1644 242.168 66.2675 242.115 66.3417C242.062 66.4161 241.959 66.4333 241.885 66.3802L240.835 65.6304C240.761 65.5774 240.744 65.4744 240.797 65.4001Z" fill="#E6E8EC"/>
<path d="M242.44 66.7927C242.543 66.7927 242.626 66.7094 242.626 66.6068C242.626 66.5041 242.543 66.4209 242.44 66.4209C242.338 66.4209 242.254 66.5041 242.254 66.6068C242.254 66.7094 242.338 66.7927 242.44 66.7927Z" fill="#E6E8EC"/>
<defs>
<linearGradient id="paint0_linear" x1="53" y1="254" x2="53" y2="308" gradientUnits="userSpaceOnUse">
<stop stop-color="white" stop-opacity="0.01"/>
<stop offset="1" stop-color="white"/>
</linearGradient>
<linearGradient id="paint1_linear" x1="57" y1="254" x2="57" y2="301" gradientUnits="userSpaceOnUse">
<stop stop-color="white" stop-opacity="0.01"/>
<stop offset="1" stop-color="white"/>
</linearGradient>
<linearGradient id="paint2_linear" x1="410" y1="244" x2="410" y2="266.908" gradientUnits="userSpaceOnUse">
<stop stop-color="white" stop-opacity="0.01"/>
<stop offset="1" stop-color="white"/>
</linearGradient>
<linearGradient id="paint3_linear" x1="261" y1="233" x2="261" y2="255.908" gradientUnits="userSpaceOnUse">
<stop stop-color="white" stop-opacity="0.01"/>
<stop offset="1" stop-color="white"/>
</linearGradient>
<linearGradient id="paint4_linear" x1="0" y1="38.0579" x2="0" y2="159.789" gradientUnits="userSpaceOnUse">
<stop stop-color="white" stop-opacity="0.01"/>
<stop offset="1" stop-color="white"/>
</linearGradient>
<linearGradient id="paint5_linear" x1="283" y1="0.0578613" x2="283" y2="121.789" gradientUnits="userSpaceOnUse">
<stop stop-color="white" stop-opacity="0.01"/>
<stop offset="1" stop-color="white"/>
</linearGradient>
<linearGradient id="paint6_linear" x1="118.99" y1="197.992" x2="118.99" y2="273.195" gradientUnits="userSpaceOnUse">
<stop stop-color="white" stop-opacity="0.01"/>
<stop offset="1" stop-color="white"/>
</linearGradient>
<linearGradient id="paint7_linear" x1="147.793" y1="107.444" x2="147.793" y2="176.385" gradientUnits="userSpaceOnUse">
<stop stop-color="white" stop-opacity="0.01"/>
<stop offset="1" stop-color="white"/>
</linearGradient>
<linearGradient id="paint8_linear" x1="358.087" y1="137.629" x2="358.087" y2="148.631" gradientUnits="userSpaceOnUse">
<stop stop-color="white" stop-opacity="0.01"/>
<stop offset="1" stop-color="white"/>
</linearGradient>
<linearGradient id="paint9_linear" x1="363.582" y1="171.482" x2="363.582" y2="182.484" gradientUnits="userSpaceOnUse">
<stop stop-color="white" stop-opacity="0.01"/>
<stop offset="1" stop-color="white"/>
</linearGradient>
<linearGradient id="paint10_linear" x1="377.952" y1="182.907" x2="377.952" y2="193.91" gradientUnits="userSpaceOnUse">
<stop stop-color="white" stop-opacity="0.01"/>
<stop offset="1" stop-color="white"/>
</linearGradient>
</defs>
</svg>
